<svg id="Layer_1" enable-background="new 0 0 511.334 511.334" height="512" viewBox="0 0 511.334 511.334" width="512" xmlns="http://www.w3.org/2000/svg"><path d="m442.334 85.334h-373.334c-38.047 0-69 30.953-69 69v202.666c0 38.047 30.953 69 69 69h373.334c38.047 0 69-30.953 69-69v-202.666c0-38.047-30.953-69-69-69zm-373.334 42h373.334c14.888 0 27 12.112 27 27v16.333h-427.334v-16.333c0-14.888 12.112-27 27-27zm373.334 256.666h-373.334c-14.888 0-27-12.112-27-27v-144.333h427.334v144.333c0 14.888-12.112 27-27 27z"/><path d="m127.667 266.667h-32c-11.598 0-21 9.402-21 21s9.402 21 21 21h32c11.598 0 21-9.402 21-21s-9.402-21-21-21z"/></svg>